<svg xmlns="http://www.w3.org/2000/svg" xmlns:xlink="http://www.w3.org/1999/xlink" version="1.1" id="icons" x="0px" y="0px" viewBox="0 0 70 70" style="enable-background:new 0 0 70 70;" xml:space="preserve" class="injected-svg" data-src="/static/media/etherscan.672efff6.svg">
<g id="etherscan-logo-circle" transform="translate(-219.378 -213.334)">
	<path id="Path_1-1" style="fill:#0C598B;" d="M234.5,246.71c0-1.59,1.29-2.88,2.88-2.88c0,0,0.01,0,0.01,0l4.8,0.02   c1.59,0,2.89,1.29,2.89,2.89c0,0,0,0,0,0v18.16c0.54-0.16,1.23-0.33,1.99-0.51c1.09-0.26,1.85-1.22,1.85-2.34v-22.52   c0-1.59,1.29-2.89,2.89-2.89h4.81c1.59,0,2.89,1.29,2.89,2.89v20.9c0,0,1.2-0.49,2.38-0.98c0.89-0.38,1.47-1.25,1.47-2.22v-24.92   c0-1.59,1.29-2.89,2.89-2.89l0,0h4.81c1.59,0,2.89,1.29,2.89,2.89v20.52c4.17-3.02,8.4-6.66,11.75-11.03   c0.99-1.29,1.27-2.99,0.74-4.52c-4.65-13.55-17.31-22.73-31.64-22.92c-18.86-0.25-34.44,15.14-34.44,34   c-0.02,5.97,1.54,11.83,4.52,17.01c0.84,1.44,2.44,2.27,4.1,2.12c0.91-0.08,2.04-0.19,3.39-0.35c1.21-0.14,2.13-1.16,2.13-2.39   L234.5,246.71"></path>
	<path id="Path_2-2" style="fill:#979695;" d="M234.4,275.83c15.18,11.04,36.44,7.69,47.49-7.49c4.23-5.81,6.51-12.82,6.5-20   c0-0.78-0.04-1.56-0.09-2.33C275.88,264.53,252.95,273.19,234.4,275.83"></path>
</g>
</svg>